# 3ds Max Wavefront OBJ Exporter v0.94b - (c)2007 guruware
# File Created: 29.12.2018 16:08:17

#
# object Flamethrower_G
#

v  -14.9845 -3.5319 0.1900
v  -16.0207 -2.9340 0.3056
v  -15.0961 -3.8631 0.1896
v  26.6418 3.0336 0.0014
v  26.6428 2.6956 0.8162
v  17.8362 3.0046 0.0010
v  17.8375 2.6663 0.8162
v  26.6456 1.8801 1.1535
v  17.8399 1.8508 1.1535
v  26.6483 1.0649 0.8151
v  17.8430 1.0356 0.8151
v  26.6493 0.7277 -0.0003
v  17.8440 0.6984 -0.0003
v  17.8430 1.0366 -0.8151
v  26.6483 1.0660 -0.8151
v  17.8403 1.8525 -1.1528
v  26.6456 1.8815 -1.1525
v  17.8375 2.6673 -0.8141
v  26.6428 2.6966 -0.8141
v  26.6422 2.8631 0.9843
v  26.6456 1.8798 1.3905
v  26.6486 0.8972 0.9830
v  26.6500 0.4906 -0.0003
v  26.6490 0.8985 -0.9833
v  26.6456 1.8818 -1.3895
v  26.6422 2.8641 -0.9819
v  26.6408 3.2706 0.0014
v  -13.7178 2.7301 -0.9823
v  -13.7147 1.7474 -1.3902
v  -13.7192 3.1367 0.0010
v  -13.7178 2.7291 0.9836
v  -13.7147 1.7458 1.3902
v  -13.7113 0.7631 0.9823
v  -13.7100 0.3565 -0.0010
v  -13.7113 0.7645 -0.9836
v  18.2083 1.4722 -0.3806
v  26.1848 1.4985 -0.3803
v  18.2090 1.3143 -0.0000
v  26.1838 1.8798 -0.5379
v  18.2069 1.8532 -0.5382
v  26.1824 2.2600 -0.3799
v  18.2059 2.2335 -0.3799
v  26.1821 2.4176 0.0010
v  18.2052 2.3910 0.0007
v  18.2059 2.2331 0.3813
v  26.1824 2.2597 0.3817
v  18.2069 1.8525 0.5389
v  26.1838 1.8788 0.5389
v  18.2083 1.4715 0.3810
v  26.1848 1.4981 0.3810
v  26.1855 1.3409 0.0003
v  -22.9143 2.7304 1.0157
v  -22.9112 1.7151 1.4359
v  -22.0374 3.2338 1.5171
v  -22.0323 1.7178 2.1439
v  -22.9078 0.7003 1.0147
v  -22.0272 0.2021 1.5150
v  -22.9065 0.2801 -0.0010
v  -22.0251 -0.4248 -0.0014
v  -22.0272 0.2042 -1.5171
v  -22.9078 0.7017 -1.0157
v  -22.0323 1.7205 -2.1439
v  -22.9112 1.7171 -1.4355
v  -22.0371 3.2358 -1.5150
v  -22.9143 2.7318 -1.0147
v  -22.0395 3.8631 0.0014
v  -22.9160 3.1516 0.0010
v  -13.6615 1.7458 1.7821
v  -13.6660 3.0060 1.2609
v  -13.6677 3.5285 0.0014
v  -13.6656 3.0077 -1.2592
v  -13.6615 1.7477 -1.7817
v  -13.6574 0.4876 -1.2609
v  -13.6557 -0.0349 -0.0010
v  -13.6574 0.4858 1.2592
v  -24.7206 2.7256 -1.0147
v  -24.7175 1.7110 -1.4359
v  -24.7220 3.1458 0.0007
v  -24.7206 2.7243 1.0157
v  -24.7175 1.7092 1.4355
v  -24.7141 0.6942 1.0143
v  -24.7127 0.2744 -0.0010
v  -24.7141 0.6957 -1.0160
v  -26.6462 1.7031 1.1739
v  -26.6435 0.8729 0.8295
v  -24.6462 1.7095 1.1739
v  -24.6435 0.8795 0.8298
v  -26.6425 0.5295 -0.0010
v  -24.6425 0.5363 -0.0010
v  -24.6435 0.8805 -0.8312
v  -26.6435 0.8739 -0.8312
v  -24.6462 1.7110 -1.1743
v  -26.6462 1.7044 -1.1743
v  -24.6490 2.5411 -0.8302
v  -26.6490 2.5346 -0.8302
v  -24.6503 2.8846 0.0007
v  -26.6500 2.8781 0.0003
v  -26.6490 2.5336 0.8305
v  -24.6490 2.5400 0.8308
v  -19.1469 -0.1179 0.3073
v  -19.1469 -0.1175 -0.3032
v  -18.2380 -1.4381 0.3066
v  -18.2380 -1.4378 -0.3039
v  -17.3471 -2.4170 -0.3046
v  -17.3471 -2.4170 0.3059
v  -16.2772 -3.2468 -0.3053
v  -16.2772 -3.2475 0.3053
v  -15.0961 -3.8631 -0.1903
v  -14.9845 -3.5319 -0.1900
v  -16.0207 -2.9337 -0.3049
v  -16.9566 -2.1516 -0.3042
v  -16.9566 -2.1519 0.3059
v  -17.7131 -1.2206 -0.3039
v  -17.7131 -1.2209 0.3066
v  -18.2437 -0.1014 0.3073
v  -18.2437 -0.1011 -0.3032
# 116 vertices

vn 0.7835 0.2794 0.5550
vn 0.4163 0.5324 0.7371
vn 0.3246 -0.7763 0.5403
vn 0.8065 -0.5913 -0.0004
vn 0.8058 -0.4172 -0.4203
vn 0.6329 -0.7743 -0.0004
vn 0.6318 -0.5468 -0.5495
vn 0.8042 0.0030 -0.5943
vn 0.6303 0.0026 -0.7763
vn 0.8031 0.4229 -0.4197
vn 0.6282 0.5516 -0.5487
vn 0.8024 0.5968 0.0004
vn 0.6276 0.7785 0.0006
vn 0.6284 0.5508 0.5493
vn 0.8025 0.4228 0.4209
vn 0.6301 0.0015 0.7765
vn 0.8042 0.0024 0.5944
vn 0.6320 -0.5473 0.5486
vn 0.8058 -0.4178 0.4198
vn 0.6282 0.5509 0.5495
vn 0.6303 0.0015 0.7763
vn 0.6318 -0.5474 0.5488
vn 0.6327 -0.7744 -0.0005
vn 0.6323 -0.5464 -0.5493
vn 0.6303 0.0027 -0.7764
vn 0.6283 0.5515 -0.5487
vn 0.6274 0.7787 0.0004
vn -0.0023 0.7076 -0.7066
vn 0.0000 0.0006 -1.0000
vn -0.0033 1.0000 0.0006
vn -0.0024 0.7067 0.7075
vn -0.0000 -0.0007 1.0000
vn 0.0023 -0.7076 0.7066
vn 0.0033 -1.0000 -0.0007
vn 0.0024 -0.7066 -0.7076
vn 0.0024 -0.7067 -0.7075
vn 0.6319 -0.5468 -0.5492
vn 0.0033 -1.0000 -0.0010
vn 0.6307 0.0027 -0.7761
vn 0.0000 0.0010 -1.0000
vn 0.6285 0.5514 -0.5486
vn -0.0024 0.7078 -0.7064
vn 0.6281 0.7781 0.0004
vn -0.0033 1.0000 0.0005
vn -0.0024 0.7068 0.7074
vn 0.6284 0.5506 0.5495
vn -0.0000 -0.0003 1.0000
vn 0.6307 0.0013 0.7760
vn 0.0024 -0.7076 0.7066
vn 0.6320 -0.5474 0.5486
vn 0.6333 -0.7739 -0.0003
vn -0.3637 0.6578 0.6596
vn -0.3613 -0.0018 0.9325
vn -0.2917 0.6754 0.6773
vn -0.2893 -0.0016 0.9572
vn -0.3591 -0.6609 0.6590
vn -0.2870 -0.6783 0.6764
vn -0.3582 -0.9337 -0.0007
vn -0.2860 -0.9582 -0.0006
vn -0.2871 -0.6773 -0.6774
vn -0.3591 -0.6600 -0.6599
vn -0.2894 -0.0003 -0.9572
vn -0.3612 -0.0006 -0.9325
vn -0.2915 0.6763 -0.6765
vn -0.3635 0.6585 -0.6589
vn -0.2926 0.9562 0.0006
vn -0.3644 0.9312 0.0007
vn 0.6464 0.0017 0.7630
vn 0.6445 0.5415 0.5399
vn 0.6439 0.7652 0.0006
vn 0.6447 0.5420 -0.5391
vn 0.6465 0.0026 -0.7629
vn 0.6481 -0.5371 -0.5399
vn 0.6490 -0.7608 -0.0005
vn 0.6482 -0.5378 0.5391
vn -0.6320 0.5473 -0.5487
vn -0.6302 -0.0016 -0.7764
vn -0.6327 0.7744 0.0005
vn -0.6320 0.5466 0.5494
vn -0.6303 -0.0024 0.7763
vn -0.6284 -0.5515 0.5486
vn -0.6277 -0.7785 -0.0005
vn -0.6283 -0.5508 -0.5494
vn -0.6303 -0.0025 0.7764
vn -0.6284 -0.5514 0.5487
vn -0.0001 -0.0007 1.0000
vn 0.0023 -0.7075 0.7067
vn -0.6278 -0.7784 -0.0005
vn 0.0034 -1.0000 -0.0007
vn -0.6284 -0.5507 -0.5495
vn -0.0000 0.0006 -1.0000
vn -0.6303 -0.0016 -0.7763
vn -0.0023 0.7074 -0.7068
vn -0.6321 0.5472 -0.5487
vn -0.0033 1.0000 0.0007
vn -0.6327 0.7744 0.0004
vn -0.6322 0.5466 0.5492
vn -0.0023 0.7065 0.7077
vn -0.6977 -0.4806 0.5313
vn -0.6976 -0.4800 -0.5320
vn -0.5653 -0.4489 0.6920
vn -0.5655 -0.4481 -0.6924
vn -0.4925 -0.5325 -0.6884
vn -0.4923 -0.5331 0.6881
vn -0.3656 -0.6182 -0.6958
vn -0.3659 -0.6196 0.6944
vn 0.3246 -0.7758 -0.5411
vn 0.7837 0.2799 -0.5545
vn 0.4164 0.5335 -0.7362
vn 0.4872 0.4810 -0.7289
vn 0.4872 0.4800 0.7295
vn 0.5735 0.3620 -0.7349
vn 0.5737 0.3612 0.7352
vn 0.5590 0.2646 0.7859
vn 0.5589 0.2654 -0.7856
# 115 vertex normals

vt 0.4192 0.0806 0.0000
vt 0.4616 0.0806 0.0000
vt 0.4159 0.1026 0.0000
vt 0.7912 0.7413 0.0000
vt 0.7912 0.7020 0.0000
vt 0.5951 0.7413 0.0000
vt 0.5951 0.7020 0.0000
vt 0.7912 0.6627 0.0000
vt 0.5951 0.6627 0.0000
vt 0.7912 0.6234 0.0000
vt 0.5951 0.6234 0.0000
vt 0.7912 0.5841 0.0000
vt 0.5951 0.5841 0.0000
vt 0.9821 0.9283 0.0000
vt 0.9821 0.8774 0.0000
vt 0.9874 0.9283 0.0000
vt 0.9874 0.8774 0.0000
vt 0.9821 0.8265 0.0000
vt 0.9874 0.8265 0.0000
vt 0.9821 0.7757 0.0000
vt 0.9874 0.7800 0.0000
vt 0.9874 0.9748 0.0000
vt 0.9821 0.9792 0.0000
vt 0.0173 0.9283 0.0000
vt 0.0173 0.8774 0.0000
vt 0.0173 0.9792 0.0000
vt 0.0173 0.8265 0.0000
vt 0.0173 0.7757 0.0000
vt 0.8011 0.6936 0.0000
vt 0.9923 0.6936 0.0000
vt 0.8011 0.6738 0.0000
vt 0.9923 0.7133 0.0000
vt 0.8011 0.7133 0.0000
vt 0.9923 0.7331 0.0000
vt 0.8011 0.7331 0.0000
vt 0.9923 0.7528 0.0000
vt 0.8011 0.7528 0.0000
vt 0.9923 0.6738 0.0000
vt 0.1190 0.5646 0.0000
vt 0.1190 0.4332 0.0000
vt 0.1761 0.5799 0.0000
vt 0.1761 0.4345 0.0000
vt 0.1190 0.3029 0.0000
vt 0.1761 0.2871 0.0000
vt 0.1190 0.1801 0.0000
vt 0.1761 0.1271 0.0000
vt 0.1761 0.7355 0.0000
vt 0.1190 0.6856 0.0000
vt 0.5781 0.4377 0.0000
vt 0.5781 0.5744 0.0000
vt 0.5781 0.7104 0.0000
vt 0.5781 0.3021 0.0000
vt 0.5781 0.1630 0.0000
vt 0.0195 0.5503 0.0000
vt 0.0195 0.4352 0.0000
vt 0.0195 0.6658 0.0000
vt 0.0195 0.3184 0.0000
vt 0.0195 0.2055 0.0000
vt 0.5956 0.3538 0.0000
vt 0.5956 0.2608 0.0000
vt 0.6991 0.3538 0.0000
vt 0.6991 0.2608 0.0000
vt 0.5956 0.1678 0.0000
vt 0.6991 0.1678 0.0000
vt 0.6991 0.4468 0.0000
vt 0.5956 0.4468 0.0000
vt 0.6991 0.5398 0.0000
vt 0.5956 0.5398 0.0000
vt 0.0165 0.0930 0.0000
vt 0.0165 0.0425 0.0000
vt 0.0830 0.0930 0.0000
vt 0.0830 0.0425 0.0000
vt 0.1378 0.0425 0.0000
vt 0.1378 0.0930 0.0000
vt 0.1939 0.0425 0.0000
vt 0.1939 0.0930 0.0000
vt 0.2491 0.0835 0.0000
vt 0.2491 0.0520 0.0000
vt 0.4188 0.0406 0.0000
vt 0.4610 0.0406 0.0000
vt 0.5048 0.0806 0.0000
vt 0.5042 0.0406 0.0000
vt 0.5473 0.0806 0.0000
vt 0.5467 0.0406 0.0000
vt 0.5905 0.0406 0.0000
vt 0.5911 0.0806 0.0000
vt 0.4624 0.1132 0.0000
vt 0.5083 0.1147 0.0000
vt 0.5512 0.1190 0.0000
vt 0.6051 0.1350 0.0000
vt 0.6469 0.1115 0.0000
vt 0.6407 0.0823 0.0000
vt 0.6616 0.1234 0.0000
vt 0.6821 0.0816 0.0000
vt 0.6613 0.0406 0.0000
vt 0.6760 0.0524 0.0000
vt 0.6762 0.1110 0.0000
vt 0.9209 0.6438 0.0000
vt 0.8760 0.6056 0.0000
vt 0.9662 0.6072 0.0000
vt 0.9669 0.4269 0.0000
vt 0.8768 0.4253 0.0000
vt 0.9220 0.3887 0.0000
vt 0.8577 0.5151 0.0000
vt 0.8195 0.0860 0.0000
vt 0.8359 0.1668 0.0000
vt 0.7794 0.0519 0.0000
vt 0.7220 0.1648 0.0000
vt 0.7784 0.2797 0.0000
vt 0.7383 0.2457 0.0000
vt 0.7390 0.0846 0.0000
vt 0.7364 0.5211 0.0000
vt 0.7181 0.4371 0.0000
vt 0.7790 0.5547 0.0000
vt 0.8378 0.4330 0.0000
vt 0.7769 0.3154 0.0000
vt 0.8195 0.3490 0.0000
vt 0.7349 0.3519 0.0000
vt 0.9631 0.1168 0.0000
vt 0.9842 0.2138 0.0000
vt 0.9138 0.0780 0.0000
vt 0.8459 0.2187 0.0000
vt 0.9163 0.3545 0.0000
vt 0.8670 0.3157 0.0000
vt 0.8653 0.1202 0.0000
vt 0.6467 0.0529 0.0000
vt 0.9852 0.5174 0.0000
vt 0.8188 0.2471 0.0000
vt 0.8210 0.5181 0.0000
vt 0.9648 0.3123 0.0000
vt 0.4068 0.0728 0.0000
vt 0.4064 0.0459 0.0000
# 132 texture coords

g Flamethrower_G
s 1
f 1/1/1 2/2/2 3/3/3 
f 4/4/4 5/5/5 6/6/6 
f 7/7/7 6/6/6 5/5/5 
f 5/5/5 8/8/8 7/7/7 
f 9/9/9 7/7/7 8/8/8 
f 8/8/8 10/10/10 9/9/9 
f 11/11/11 9/9/9 10/10/10 
f 10/10/10 12/12/12 11/11/11 
f 13/13/13 11/11/11 12/12/12 
f 13/13/13 12/12/12 14/11/14 
f 15/10/15 14/11/14 12/12/12 
f 14/11/14 15/10/15 16/9/16 
f 17/8/17 16/9/16 15/10/15 
f 16/9/16 17/8/17 18/7/18 
f 19/5/19 18/7/18 17/8/17 
f 18/7/18 19/5/19 6/6/6 
f 4/4/4 6/6/6 19/5/19 
f 20/14/20 21/15/21 5/16/5 
f 8/17/8 5/16/5 21/15/21 
f 21/15/21 22/18/22 8/17/8 
f 10/19/10 8/17/8 22/18/22 
f 22/18/22 23/20/23 10/19/10 
f 12/21/12 10/19/10 23/20/23 
f 12/21/12 23/20/23 15/19/15 
f 24/18/24 15/19/15 23/20/23 
f 15/19/15 24/18/24 17/17/17 
f 25/15/25 17/17/17 24/18/24 
f 17/17/17 25/15/25 19/16/19 
f 26/14/26 19/16/19 25/15/25 
f 19/16/19 26/14/26 4/22/4 
f 27/23/27 4/22/4 26/14/26 
f 27/23/27 20/14/20 4/22/4 
f 5/16/5 4/22/4 20/14/20 
f 28/24/28 26/14/26 29/25/29 
f 26/14/26 28/24/28 27/23/27 
f 30/26/30 27/23/27 28/24/28 
f 30/26/30 31/24/31 27/23/27 
f 20/14/20 27/23/27 31/24/31 
f 31/24/31 32/25/32 20/14/20 
f 21/15/21 20/14/20 32/25/32 
f 32/25/32 33/27/33 21/15/21 
f 22/18/22 21/15/21 33/27/33 
f 33/27/33 34/28/34 22/18/22 
f 23/20/23 22/18/22 34/28/34 
f 23/20/23 34/28/34 24/18/24 
f 35/27/35 24/18/24 34/28/34 
f 24/18/24 35/27/35 25/15/25 
f 29/25/29 25/15/25 35/27/35 
f 25/15/25 29/25/29 26/14/26 
f 36/29/36 37/30/37 38/31/38 
f 37/30/37 36/29/36 39/32/39 
f 40/33/40 39/32/39 36/29/36 
f 39/32/39 40/33/40 41/34/41 
f 42/35/42 41/34/41 40/33/40 
f 41/34/41 42/35/42 43/36/43 
f 44/37/44 43/36/43 42/35/42 
f 44/37/44 45/35/45 43/36/43 
f 46/34/46 43/36/43 45/35/45 
f 45/35/45 47/33/47 46/34/46 
f 48/32/48 46/34/46 47/33/47 
f 47/33/47 49/29/49 48/32/48 
f 50/30/50 48/32/48 49/29/49 
f 49/29/49 38/31/38 50/30/50 
f 51/38/51 50/30/50 38/31/38 
f 51/38/51 38/31/38 37/30/37 
f 52/39/52 53/40/53 54/41/54 
f 55/42/55 54/41/54 53/40/53 
f 53/40/53 56/43/56 55/42/55 
f 57/44/57 55/42/55 56/43/56 
f 56/43/56 58/45/58 57/44/57 
f 59/46/59 57/44/57 58/45/58 
f 59/46/59 58/45/58 60/44/60 
f 61/43/61 60/44/60 58/45/58 
f 60/44/60 61/43/61 62/42/62 
f 63/40/63 62/42/62 61/43/61 
f 62/42/62 63/40/63 64/41/64 
f 65/39/65 64/41/64 63/40/63 
f 64/41/64 65/39/65 66/47/66 
f 67/48/67 66/47/66 65/39/65 
f 67/48/67 52/39/52 66/47/66 
f 54/41/54 66/47/66 52/39/52 
f 68/49/68 69/50/69 55/42/55 
f 54/41/54 55/42/55 69/50/69 
f 69/50/69 70/51/70 54/41/54 
f 66/47/66 54/41/54 70/51/70 
f 66/47/66 70/51/70 64/41/64 
f 71/50/71 64/41/64 70/51/70 
f 64/41/64 71/50/71 62/42/62 
f 72/49/72 62/42/62 71/50/71 
f 62/42/62 72/49/72 60/44/60 
f 73/52/73 60/44/60 72/49/72 
f 60/44/60 73/52/73 59/46/59 
f 74/53/74 59/46/59 73/52/73 
f 74/53/74 75/52/75 59/46/59 
f 57/44/57 59/46/59 75/52/75 
f 75/52/75 68/49/68 57/44/57 
f 55/42/55 57/44/57 68/49/68 
f 76/54/76 65/39/65 77/55/77 
f 65/39/65 76/54/76 67/48/67 
f 78/56/78 67/48/67 76/54/76 
f 78/56/78 79/54/79 67/48/67 
f 52/39/52 67/48/67 79/54/79 
f 79/54/79 80/55/80 52/39/52 
f 53/40/53 52/39/52 80/55/80 
f 80/55/80 81/57/81 53/40/53 
f 56/43/56 53/40/53 81/57/81 
f 81/57/81 82/58/82 56/43/56 
f 58/45/58 56/43/56 82/58/82 
f 58/45/58 82/58/82 61/43/61 
f 83/57/83 61/43/61 82/58/82 
f 61/43/61 83/57/83 63/40/63 
f 77/55/77 63/40/63 83/57/83 
f 63/40/63 77/55/77 65/39/65 
f 84/59/84 85/60/85 86/61/86 
f 87/62/87 86/61/86 85/60/85 
f 85/60/85 88/63/88 87/62/87 
f 89/64/89 87/62/87 88/63/88 
f 89/64/89 88/63/88 90/62/35 
f 91/60/90 90/62/35 88/63/88 
f 90/62/35 91/60/90 92/61/91 
f 93/59/92 92/61/91 91/60/90 
f 92/61/91 93/59/92 94/65/93 
f 95/66/94 94/65/93 93/59/92 
f 94/65/93 95/66/94 96/67/95 
f 97/68/96 96/67/95 95/66/94 
f 97/68/96 98/66/97 96/67/95 
f 99/65/98 96/67/95 98/66/97 
f 98/66/97 84/59/84 99/65/98 
f 86/61/86 99/65/98 84/59/84 
f 100/69/99 101/70/100 102/71/101 
f 103/72/102 102/71/101 101/70/100 
f 103/72/102 104/73/103 102/71/101 
f 105/74/104 102/71/101 104/73/103 
f 104/73/103 106/75/105 105/74/104 
f 107/76/106 105/74/104 106/75/105 
f 107/76/106 106/75/105 3/77/3 
f 108/78/107 3/77/3 106/75/105 
f 1/79/1 109/1/108 2/80/2 
f 110/2/109 2/80/2 109/1/108 
f 110/2/109 111/81/110 2/80/2 
f 112/82/111 2/80/2 111/81/110 
f 111/81/110 113/83/112 112/82/111 
f 114/84/113 112/82/111 113/83/112 
f 114/84/113 113/83/112 115/85/114 
f 116/86/115 115/85/114 113/83/112 
f 2/2/2 112/81/111 107/87/106 
f 105/88/104 107/87/106 112/81/111 
f 112/81/111 114/83/113 105/88/104 
f 102/89/101 105/88/104 114/83/113 
f 114/83/113 115/86/114 102/89/101 
f 100/90/99 102/89/101 115/86/114 
f 101/90/100 116/86/115 103/89/102 
f 113/83/112 103/89/102 116/86/115 
f 103/89/102 113/83/112 104/88/103 
f 111/81/110 104/88/103 113/83/112 
f 104/88/103 111/81/110 106/87/105 
f 110/2/109 106/87/105 111/81/110 
f 7/91/7 9/92/9 6/93/6 
f 16/94/16 6/93/6 9/92/9 
f 16/94/16 9/92/9 13/95/13 
f 14/96/14 16/94/16 13/95/13 
f 6/93/6 16/94/16 18/97/18 
f 43/98/43 46/99/46 41/100/41 
f 37/101/37 41/100/41 46/99/46 
f 37/101/37 46/99/46 50/102/50 
f 51/103/51 37/101/37 50/102/50 
f 48/104/48 50/102/50 46/99/46 
f 81/105/81 80/106/80 82/107/82 
f 77/108/77 82/107/82 80/106/80 
f 77/108/77 80/106/80 78/109/78 
f 76/110/76 77/108/77 78/109/78 
f 82/107/82 77/108/77 83/111/83 
f 69/112/69 68/113/68 70/114/70 
f 72/115/72 70/114/70 68/113/68 
f 72/115/72 68/113/68 74/116/74 
f 73/117/73 72/115/72 74/116/74 
f 75/118/75 74/116/74 68/113/68 
f 85/119/85 84/120/84 88/121/88 
f 93/122/92 88/121/88 84/120/84 
f 93/122/92 84/120/84 97/123/96 
f 95/124/94 93/122/92 97/123/96 
f 88/121/88 93/122/92 91/125/90 
f 11/126/11 13/95/13 9/92/9 
f 41/100/41 37/101/37 39/127/39 
f 79/128/79 78/109/78 80/106/80 
f 70/114/70 72/115/72 71/129/71 
f 98/130/97 97/123/96 84/120/84 
f 107/87/106 3/3/3 2/2/2 
f 106/87/105 110/2/109 108/3/107 
f 109/1/108 108/3/107 110/2/109 
f 109/1/108 1/79/1 108/131/107 
f 3/132/3 108/131/107 1/79/1 
# 0 polygons - 192 triangles

